<?xml version="1.0" encoding="UTF-8" standalone="no"?>
<!-- Created with Inkscape (http://www.inkscape.org/) -->

<svg
   width="512"
   height="512"
   viewBox="0 0 512 512"
   version="1.1"
   id="svg1"
   xmlns="http://www.w3.org/2000/svg"
   xmlns:svg="http://www.w3.org/2000/svg"
   xmlns:rdf="http://www.w3.org/1999/02/22-rdf-syntax-ns#"
   xmlns:cc="http://creativecommons.org/ns#"
   xmlns:dc="http://purl.org/dc/elements/1.1/">
  <title
     id="title23">KittyShare Logo</title>
  <defs
     id="defs1" />
  <g
     id="layer1"
     style="stroke-width:4;stroke-dasharray:none">
    <g
       id="g4"
       transform="matrix(0.9443738,0,0,0.9443738,12.909516,23.113779)"
       style="stroke-width:4.23561;stroke-dasharray:none">
      <path
         id="path2"
         style="fill:#ffffff;fill-opacity:1;stroke:#000000;stroke-width:8.47122;stroke-dasharray:none"
         d="m 92.332031,50.568359 c -24.431872,-0.365585 -32.9302,41.840708 -30.222656,166.419921 -5.899691,16.10866 -9.074219,33.68573 -9.074219,52.55664 -6e-6,100.88159 91.238984,150.64649 204.111324,150.64649 0.0875,0 0.17621,6e-5 0.26368,0 0.0875,6e-5 0.17423,0 0.26172,0 112.87234,0 204.11133,-49.7649 204.11132,-150.64649 0,-18.87092 -3.17452,-36.44798 -9.07422,-52.55664 C 457.5224,-4.485875 426.92096,34.379471 334.33594,109.95312 c -28.61067,-8.12088 -122.54606,-8.06374 -153.85352,0 C 139.97647,76.889651 111.3346,50.852704 92.332031,50.568359 Z" />
      <g
         id="g8"
         transform="translate(-1.7571858)"
         style="stroke-width:4.23561;stroke-dasharray:none">
        <path
           style="fill:none;stroke:#000000;stroke-width:4.23561;stroke-dasharray:none;stroke-opacity:1"
           d="m 92.375192,183.43823 c 6.823171,-14.43362 44.088158,-50.91132 60.358788,-53.27319"
           id="path3" />
        <path
           style="fill:none;stroke:#000000;stroke-width:4.23561;stroke-dasharray:none;stroke-opacity:1"
           d="M 423.13918,184.84087 C 416.316,170.40725 379.05102,133.92955 362.78039,131.56768"
           id="path3-3" />
      </g>
    </g>
    <g
       id="g12"
       style="fill:#ffffff;fill-opacity:1;stroke-width:4;stroke-dasharray:none"
       transform="rotate(-54.30625,184.2893,404.35948)">
      <path
         id="rect11"
         style="fill:#ffffff;fill-opacity:1;stroke:#000000;stroke-width:4;stroke-dasharray:none"
         d="m 214.11398,406.95192 h 52.98688 l 21.29706,23.21596 V 516.423 h -74.28394 z" />
      <g
         id="g15"
         style="stroke-width:4;stroke-dasharray:none"
         transform="translate(-16.515347,41.566716)">
        <path
           style="fill:#ffffff;fill-opacity:1;stroke:#000000;stroke-width:4;stroke-dasharray:none;stroke-opacity:1"
           d="m 239.37975,397.29615 47.13368,-0.18556"
           id="path12" />
        <path
           style="fill:#ffffff;fill-opacity:1;stroke:#000000;stroke-width:4;stroke-dasharray:none;stroke-opacity:1"
           d="m 239.49874,409.173 c 8.40209,-0.0341 22.1188,5.2e-4 33.21626,0"
           id="path13" />
        <path
           style="fill:#ffffff;fill-opacity:1;stroke:#000000;stroke-width:4;stroke-dasharray:none;stroke-opacity:1"
           d="m 239.53661,420.97409 h 41.38115"
           id="path14" />
        <path
           style="fill:#ffffff;fill-opacity:1;stroke:#000000;stroke-width:4;stroke-dasharray:none;stroke-opacity:1"
           d="m 239.405,433.32185 h 33.58739"
           id="path15" />
      </g>
    </g>
    <rect
       style="fill:#ffffff;fill-opacity:1;stroke:none;stroke-width:3;stroke-dasharray:none;stroke-opacity:1"
       id="rect23"
       width="62.357979"
       height="23.290329"
       x="223.66672"
       y="321.07068" />
    <g
       id="g9"
       transform="matrix(1.0426283,0,0,1.0426283,-10.912845,-4.2253884)"
       style="stroke-width:3.83646;stroke-dasharray:none">
      <g
         id="g5"
         transform="translate(-0.422695)"
         style="stroke-width:3.83646;stroke-dasharray:none">
        <path
           id="path4"
           style="fill:#000000;fill-opacity:1;stroke:none;stroke-width:3.83646;stroke-dasharray:none;stroke-opacity:1"
           d="m 324.49414,230.64566 a 28.240623,28.240623 0 0 0 -28.24106,28.24106 28.240623,28.240623 0 0 0 28.24106,28.24106 28.240623,28.240623 0 0 0 28.24106,-28.24106 28.240623,28.240623 0 0 0 -28.24106,-28.24106 z m 4.59923,8.98141 a 9.2171978,17.035983 55.738141 0 1 5.77515,2.93979 9.2171978,17.035983 55.738141 0 1 -9.62982,17.27048 9.2171978,17.035983 55.738141 0 1 -18.91071,1.30779 9.2171978,17.035983 55.738141 0 1 9.62981,-17.2705 9.2171978,17.035983 55.738141 0 1 13.13557,-4.24756 z" />
        <path
           id="path4-1"
           style="fill:#000000;fill-opacity:1;stroke:none;stroke-width:3.83646;stroke-dasharray:none;stroke-opacity:1"
           d="m 324.49414,230.64566 a 28.240623,28.240623 0 0 0 -28.24106,28.24106 28.240623,28.240623 0 0 0 28.24106,28.24106 28.240623,28.240623 0 0 0 28.24106,-28.24106 28.240623,28.240623 0 0 0 -28.24106,-28.24106 z m 4.59923,8.98141 a 9.2171978,17.035983 55.738141 0 1 5.77515,2.93979 9.2171978,17.035983 55.738141 0 1 -9.62982,17.27048 9.2171978,17.035983 55.738141 0 1 -18.91071,1.30779 9.2171978,17.035983 55.738141 0 1 9.62981,-17.2705 9.2171978,17.035983 55.738141 0 1 13.13557,-4.24756 z"
           transform="translate(-136.14289,-0.69794089)" />
      </g>
      <g
         id="g7"
         transform="translate(2.46484)"
         style="stroke-width:3.83646;stroke-dasharray:none">
        <path
           style="fill:#000000;fill-opacity:1;stroke:none;stroke-width:3.83646;stroke-dasharray:none;stroke-opacity:1"
           d="m 253.85387,287.44126 c -6.26189,0 -19.33497,15.2525 -17.44317,19.4844 1.8918,4.2319 31.11105,5.25262 33.58224,-0.005 2.47119,-5.25762 -9.87718,-19.4794 -16.13907,-19.4794 z"
           id="path5" />
        <path
           id="path6"
           style="baseline-shift:baseline;display:inline;overflow:visible;opacity:1;stroke-width:4.37647;stroke-dasharray:none;enable-background:accumulate;stop-color:#000000;stop-opacity:1"
           d="m 249.70151,314.96507 c -0.68185,8.16673 -4.36257,11.64232 -12.5714,14.71256 -8.20882,3.07025 -18.77913,4.03293 -26.18363,4.03293 l 0.11989,5.44458 c 7.93589,0 18.87115,-0.99957 28.1236,-4.46014 6.00653,-2.24656 11.37543,-5.72088 14.35046,-10.5883 2.97679,4.85999 8.33998,8.32972 14.34069,10.57408 9.25245,3.4606 20.18772,4.46015 28.12361,4.46015 l -0.0899,-5.2048 c -7.4045,0 -17.28545,-0.84277 -25.49428,-3.91304 -7.84974,-2.66811 -12.28842,-6.97951 -12.8127,-15.06508 -2.73536,-0.0162 -5.17103,0.0158 -7.90634,0.007 z" />
      </g>
    </g>
    <g
       id="g10"
       transform="matrix(0.9443738,0,0,0.9443738,14.586502,23.113779)"
       style="stroke-width:4.23561;stroke-dasharray:none">
      <g
         id="g11"
         transform="translate(1.8370067,-25.718093)"
         style="stroke-width:4.23561;stroke-dasharray:none">
        <path
           style="fill:none;fill-opacity:1;stroke:#000000;stroke-width:4.23561;stroke-dasharray:none;stroke-opacity:1"
           d="m 379.00806,354.96244 c 34.97119,-15.65352 98.29996,11.49111 98.29996,11.49111"
           id="path9-0" />
        <path
           style="fill:none;fill-opacity:1;stroke:#000000;stroke-width:4.23561;stroke-dasharray:none;stroke-opacity:1"
           d="m 378.6005,322.76275 c 34.97119,-15.65352 98.29997,11.4911 98.29997,11.4911"
           id="path9-9" />
      </g>
      <g
         id="g11-7"
         transform="matrix(-1,0,0,1,509.42982,-25.756201)"
         style="stroke-width:4.23561;stroke-dasharray:none">
        <path
           style="fill:none;fill-opacity:1;stroke:#000000;stroke-width:4.23561;stroke-dasharray:none;stroke-opacity:1"
           d="m 379.00806,354.96244 c 34.97119,-15.65352 98.29996,11.49111 98.29996,11.49111"
           id="path9-0-3" />
        <path
           style="fill:none;fill-opacity:1;stroke:#000000;stroke-width:4.23561;stroke-dasharray:none;stroke-opacity:1"
           d="m 378.6005,322.76275 c 34.97119,-15.65352 98.29997,11.4911 98.29997,11.4911"
           id="path9-9-6" />
      </g>
    </g>
  </g>
  <metadata
     id="metadata23">
    <rdf:RDF>
      <cc:Work
         rdf:about="">
        <dc:title>KittyShare Logo</dc:title>
        <dc:creator>
          <cc:Agent>
            <dc:title>QuickWrite</dc:title>
          </cc:Agent>
        </dc:creator>
        <cc:license
           rdf:resource="http://creativecommons.org/licenses/by-sa/4.0/" />
        <dc:description>The logo used for the KittyShare project.</dc:description>
        <dc:relation>https://github.com/QuickWrite/KittyShare</dc:relation>
      </cc:Work>
      <cc:License
         rdf:about="http://creativecommons.org/licenses/by-sa/4.0/">
        <cc:permits
           rdf:resource="http://creativecommons.org/ns#Reproduction" />
        <cc:permits
           rdf:resource="http://creativecommons.org/ns#Distribution" />
        <cc:requires
           rdf:resource="http://creativecommons.org/ns#Notice" />
        <cc:requires
           rdf:resource="http://creativecommons.org/ns#Attribution" />
        <cc:permits
           rdf:resource="http://creativecommons.org/ns#DerivativeWorks" />
        <cc:requires
           rdf:resource="http://creativecommons.org/ns#ShareAlike" />
      </cc:License>
    </rdf:RDF>
  </metadata>
</svg>
